Coordinates
version=1
nRows=6
nColumns=36
inDegrees=yes

Units are S.I. units (second, meters, Newtons, ...)
If the header above contains a line with 'inDegrees', this indicates whether rotational values are in degrees (yes) or radians (no).

endheader
time	pelvis_tilt	pelvis_list	pelvis_rotation	pelvis_tx	pelvis_ty	pelvis_tz	hip_flexion_r	hip_adduction_r	hip_rotation_r	knee_angle_r	knee_angle_r_beta	ankle_angle_r	subtalar_angle_r	mtp_angle_r	hip_flexion_l	hip_adduction_l	hip_rotation_l	knee_angle_l	knee_angle_l_beta	ankle_angle_l	subtalar_angle_l	mtp_angle_l	lumbar_extension	lumbar_bending	lumbar_rotation	arm_flex_r	arm_add_r	arm_rot_r	elbow_flex_r	pro_sup_r	arm_flex_l	arm_add_l	arm_rot_l	elbow_flex_l	pro_sup_l
      4.05000000	      6.75928159	      0.10807125	      8.05118947	      0.72963150	      0.95448179	      0.20959535	     -3.11989454	     -7.01567227	     -3.96686158	      9.19213019	      0.16043294	      5.65781522	     -6.89162953	     -7.49999987	     -6.83109738	     -6.84315375	     -7.13037282	      6.43291994	      0.11227563	      6.67684778	     -4.48311868	     -7.49999987	    -10.11293277	      1.04187146	     -2.23668223	     36.35522931	      3.61652912	     63.49560151	    120.53222560	     95.50678231	     39.96188624	     -1.50245748	     60.40595763	    118.80030329	     96.84816093
      4.06666670	      6.83600991	      0.07916378	      7.98527684	      0.72945802	      0.95200675	      0.20891181	     -3.25565265	     -6.93262027	     -3.71448448	      9.16452119	      0.15995107	      5.56142565	     -7.27758865	     -7.49999987	     -7.07255765	     -6.86906113	     -7.11336271	      6.29912921	      0.10994054	      6.61705969	     -4.62302571	     -7.49999987	    -10.05060465	      0.94800110	     -2.26360046	     36.64561545	      3.78264365	     63.42340384	    120.58258437	     92.28304407	     40.47752551	     -1.38517472	     60.31288171	    119.10133093	     93.57442385
      4.08333330	      6.81204326	      0.05458218	      7.93375298	      0.72981575	      0.95160595	      0.20935205	     -3.26553281	     -6.88776481	     -3.61409416	      9.14973469	      0.15969300	      5.55882759	     -7.41971133	     -7.49999987	     -7.18305069	     -6.89631043	     -7.24857958	      6.19757701	      0.10816812	      6.71060551	     -4.42059320	     -7.49999987	     -9.97653709	      0.83764937	     -2.23925584	     36.88896913	      3.88178823	     63.29377384	    120.74827314	     91.29125047	     40.82467267	     -1.29348236	     59.93914803	    119.30500106	     92.59395148
      4.10000000	      6.75948595	      0.02425558	      8.01195736	      0.72957516	      0.95187580	      0.20877387	     -3.27800888	     -6.85643921	     -3.77191895	      9.12420277	      0.15924738	      5.63932045	     -7.27894388	     -7.49999987	     -7.21809123	     -6.91861947	     -7.03512097	      6.10245566	      0.10650794	      6.58050427	     -4.65872235	     -7.49999987	     -9.86584124	      0.81282921	     -2.51244712	     37.20472069	      4.09195687	     63.10223422	    120.61368641	     94.45906306	     40.91855195	     -1.39550913	     59.29836130	    119.46241927	     96.72680180
      4.11666670	      6.69788263	      0.02023353	      7.99322386	      0.72974080	      0.95160841	      0.20917175	     -3.24671996	     -6.83614896	     -3.67779541	      9.13136236	      0.15937234	      5.60286159	     -7.45030674	     -7.49999987	     -7.26360977	     -6.91099336	     -7.06706582	      6.00511437	      0.10480902	      6.58970212	     -4.63465785	     -7.49999987	     -9.81345962	      0.66250960	     -2.53166362	     37.46695365	      4.06538420	     62.86837918	    120.58457752	     93.45675170	     41.32128724	     -1.58069451	     59.13785915	    119.51393267	     95.77873562
      4.13333330	      6.78134943	      0.02706942	      7.96839695	      0.72952177	      0.95192266	      0.20872510	     -3.39341886	     -6.81664081	     -3.62161060	      9.07993622	      0.15847478	      5.55835293	     -7.59033050	     -7.49999987	     -7.47811965	     -6.90415740	     -7.10850282	      5.86472155	      0.10235870	      6.56593625	     -4.60177574	     -7.49999987	     -9.90192394	      0.58136447	     -2.59634612	     37.77228446	      4.07351079	     62.76061336	    120.32318244	     91.45935837	     41.66703809	     -1.79271591	     59.05792612	    119.36065580	     93.69537029
